<?xml version="1.0" standalone="no"?>
<!DOCTYPE svg PUBLIC "-//W3C//DTD SVG 1.1//EN" "http://www.w3.org/Graphics/SVG/1.1/DTD/svg11.dtd" >
<svg xmlns="http://www.w3.org/2000/svg">
<metadata>
Created by FontForge 20120731 at Fri Sep  2 10:23:28 2016
 By admin
</metadata>
<defs>
<font id="iconfont" horiz-adv-x="1024" >
  <font-face 
    font-family="iconfont"
    font-weight="500"
    font-stretch="normal"
    units-per-em="1024"
    panose-1="2 0 6 3 0 0 0 0 0 0"
    ascent="896"
    descent="-128"
    x-height="792"
    bbox="0 -224 1536 896"
    underline-thickness="50"
    underline-position="-100"
    unicode-range="U+0078-F0126"
  />
<missing-glyph horiz-adv-x="374" 
d="M34 0v682h272v-682h-272zM68 34h204v614h-204v-614z" />
    <glyph glyph-name=".notdef" horiz-adv-x="374" 
d="M34 0v682h272v-682h-272zM68 34h204v614h-204v-614z" />
    <glyph glyph-name=".null" horiz-adv-x="0" 
 />
    <glyph glyph-name="nonmarkingreturn" horiz-adv-x="341" 
 />
    <glyph glyph-name="x" unicode="x" horiz-adv-x="1001" 
d="M281 543q-27 -1 -53 -1h-83q-18 0 -36.5 -6t-32.5 -18.5t-23 -32t-9 -45.5v-76h912v41q0 16 -0.5 30t-0.5 18q0 13 -5 29t-17 29.5t-31.5 22.5t-49.5 9h-133v-97h-438v97zM955 310v-52q0 -23 0.5 -52t0.5 -58t-10.5 -47.5t-26 -30t-33 -16t-31.5 -4.5q-14 -1 -29.5 -0.5
t-29.5 0.5h-32l-45 128h-439l-44 -128h-29h-34q-20 0 -45 1q-25 0 -41 9.5t-25.5 23t-13.5 29.5t-4 30v167h911zM163 247q-12 0 -21 -8.5t-9 -21.5t9 -21.5t21 -8.5q13 0 22 8.5t9 21.5t-9 21.5t-22 8.5zM316 123q-8 -26 -14 -48q-5 -19 -10.5 -37t-7.5 -25t-3 -15t1 -14.5
t9.5 -10.5t21.5 -4h37h67h81h80h64h36q23 0 34 12t2 38q-5 13 -9.5 30.5t-9.5 34.5q-5 19 -11 39h-368zM336 498v228q0 11 2.5 23t10 21.5t20.5 15.5t34 6h188q31 0 51.5 -14.5t20.5 -52.5v-227h-327z" />
    <glyph glyph-name="uni3444" unicode="&#x3444;" horiz-adv-x="1000" 
d="M827 602q47 0 74.5 -23.5t27.5 -71.5v-420q0 -20 -7.5 -38.5t-21 -32t-31 -21.5t-37.5 -8h-660q-20 0 -37 7.5t-30 20t-20.5 29.5t-7.5 35v430q0 40 25 66.5t70 26.5h655zM289 462q-14 0 -27 -5.5t-22.5 -15t-15.5 -22.5t-6 -28.5t6 -28t15.5 -22.5t22.5 -15.5t27 -5.5
q16 0 29.5 5.5t23 15.5t15 22.5t5.5 28.5q0 31 -20.5 51t-52.5 20zM408 200q0 14 -5.5 27.5t-15 23t-23 15t-27.5 5.5h-95q-29 0 -49.5 -21t-20.5 -50v-3v-68h236v68v3zM759 125q15 0 22.5 7.5t7.5 18t-8.5 18.5t-23.5 8h-225q-16 0 -23.5 -8t-7.5 -18.5t7.5 -18t22.5 -7.5
h228zM760 223q15 0 22 7.5t7 17.5q0 12 -6.5 19.5t-21.5 7.5h-232q-15 0 -21.5 -7.5t-6.5 -19.5q0 -10 6 -17.5t22 -7.5h231zM761 319q11 0 19.5 7.5t8.5 18t-8.5 17t-19.5 6.5h-154q-11 0 -19 -6.5t-8 -17t8 -18t19 -7.5h154zM761 319z" />
    <glyph glyph-name="uniE602" unicode="&#xe602;" 
d="M927 629l-89 -91h-1v-1h-1v-1l-333 -336q0 -1 -0.5 -3.5t-2 -3.5t-3.5 -1.5t-3 -1.5l-15 -15l-240 -61l63 236l455 448q36 35 85.5 35t84.5 -35t35 -84.5t-35 -84.5zM298 171l134 48l-84 84zM438 394q-1 -1 -2 -2.5t-1 -2.5l-44 -45l84 -83l63 63l235 235l-85 85z
M884.5 755.5q-17.5 17.5 -42.5 17.5t-42 -18l-70 -69l85 -85l69 70q18 17 18 42t-17.5 42.5zM451 713h-269q-25 0 -42.5 -17.5t-17.5 -42.5v-598q0 -25 17.5 -42.5t42.5 -17.5h598q25 0 42.5 17.5t17.5 42.5v329q0 12 9 21t21.5 9t21 -9t8.5 -21v-329q0 -50 -35 -85t-85 -35
h-598q-50 0 -85 35t-35 85v598q0 50 35 85t85 35h269q13 0 21.5 -9t8.5 -21t-8.5 -21t-21.5 -9z" />
    <glyph glyph-name="uniE603" unicode="&#xe603;" 
d="M310 566h314q9 0 15.5 6t6.5 15v13q0 9 -6.5 15t-15.5 6h-314q-9 0 -15.5 -6t-6.5 -15v-13q0 -9 6.5 -15t15.5 -6zM310 455h251q9 0 15.5 6t6.5 15v13q0 9 -6.5 15t-15.5 6h-251q-9 0 -15.5 -6t-6.5 -15v-13q0 -9 6.5 -15t15.5 -6zM521 399h-211q-9 0 -15.5 -6t-6.5 -15
v-13q0 -9 6.5 -15t15.5 -6h211q9 0 15 6t6 15v13q0 9 -6 15t-15 6zM488 288h-178q-9 0 -15.5 -6t-6.5 -15v-13q0 -8 6.5 -14.5t15.5 -6.5h178q9 0 15.5 6.5t6.5 14.5v13q0 9 -6.5 15t-15.5 6zM715.5 604q-13.5 7 -27.5 0.5t-19 -22.5l-5 -13l66 -32l5 12q5 16 -0.5 32
t-19 23zM558 275q-7 -15 -5 -44.5t14.5 -35.5t31 11.5t25.5 36.5l97 268l-66 32zM513 782q-102 0 -188 -50.5t-136 -136.5t-50 -187.5t50 -188t136 -136.5t188 -50t188 50t136 136.5t50 188t-50 187.5t-136 136.5t-188 50.5zM513 44q-99 0 -182.5 48.5t-132.5 132.5
t-49 182.5t49 182.5t132.5 132.5t182.5 48.5t182.5 -48.5t132.5 -132.5t49 -182.5t-49 -182.5t-132.5 -132.5t-182.5 -48.5z" />
    <glyph glyph-name="uniE604" unicode="&#xe604;" 
d="M512.5 800q-104.5 0 -193 -51t-139.5 -139.5t-51 -192.5t51 -192.5t139.5 -140t193 -51.5t192.5 51.5t139.5 140t51.5 192.5t-51.5 192.5t-139.5 139.5t-192.5 51zM512.5 44q-101.5 0 -187.5 50t-136 135.5t-50 187t50 187.5t136 136t187.5 50t187 -50t135.5 -136
t50 -187.5t-50 -187t-135.5 -135.5t-187 -50zM489 444q-18 -3 -18 1q0 1 4 2q8 16 -5 17q-9 1 -23.5 14t-24.5 25l-10 13h-1q-4 5 -26 9l-10 2q-14 3 -29.5 -4.5t-17.5 -20.5l-17 -92q-2 -10 7 -20l-10 -82l-42 -74q0 -8 6 -14.5t15 -6.5q14 0 22 21l41 74l9 64h5l28 -55
v-83q0 -8 6 -14.5t14.5 -6.5t15 6.5t6.5 14.5v84l-32 83q0 3 -2 4q2 4 2 7l7 59q2 -2 3 -2q21 -20 35 -33q3 -3 10 -6t13 -5l6 -2q9 1 19 7.5t12 12.5q1 4 -18 1zM386.5 537q19.5 0 33.5 13.5t14 32.5v2l-1 1q-21 -7 -41 -8q-23 -1 -53 8v-1v-2q0 -19 14 -32.5t33.5 -13.5z
M411 516zM391 599q18 1 38 4q-12 27 -43 27t-43 -28q28 -4 48 -3zM529 238.5q0 -14.5 10.5 -25t25.5 -10.5t26 10.5t11 25t-11 24.5t-26 10t-25.5 -10t-10.5 -24.5zM565.5 258q8.5 0 14.5 -6t6 -14t-6 -14t-14.5 -6t-15 6t-6.5 14t6.5 14t15 6zM759 294h-189q-11 0 -18 17
q-2 0 -2 3v4v6v40v40v40v25q0 5 -3 11l-5 10l-3 4q-29 39 -41 21q-5 -8 -1 -11t24 -30l8 -12v-158q0 -10 6.5 -20.5t14.5 -10.5h15h157h26q9 0 11 21zM722 273q-15 0 -25.5 -10t-10.5 -24.5t10.5 -25t25.5 -10.5t26 10.5t11 25t-11 24.5t-26 10zM722.5 218q-8.5 0 -15 6
t-6.5 14t6.5 14t15 6t14.5 -6t6 -14t-6 -14t-14.5 -6zM560 314h178q10 0 10 10t-10 10h-178q-6 0 -10 -16q1 -3 2 -7q7 3 8 3zM560 434h178q10 0 10 10t-10 10h-178q-10 0 -10 -10t10 -10zM560 394h178q10 0 10 10t-10 10h-178q-10 0 -10 -10t10 -10zM560 354h178
q10 0 10 10t-10 10h-178q-10 0 -10 -10t10 -10z" />
    <glyph glyph-name="uniE605" unicode="&#xe605;" 
d="M479 229q0 -15 10.5 -25.5t25.5 -10.5t25.5 10.5t10.5 25.5t-10.5 25.5t-25.5 10.5t-25.5 -10.5t-10.5 -25.5zM515 241q5 0 8.5 -3.5t3.5 -8.5t-3.5 -8.5t-8.5 -3.5t-8.5 3.5t-3.5 8.5t3.5 8.5t8.5 3.5zM405 551l24 -22q8 -7 17 -3q4 0 6 2l24 22q13 11 2 24q-9 10 -20 4
v58q0 7 -5 12t-12.5 5t-12.5 -5t-5 -12v-57q-11 6 -20 -4q-4 -5 -4 -12t6 -12zM507.5 804q-104.5 0 -193.5 -51.5t-140.5 -140.5t-51.5 -193.5t51.5 -193.5t140.5 -140.5t193.5 -51.5t193.5 51.5t140.5 140.5t51.5 193.5t-51.5 193.5t-140.5 140.5t-193.5 51.5zM507.5 44
q-101.5 0 -188 50t-136.5 136.5t-50 188.5t50 188t136.5 136.5t188 50.5t188 -50.5t136.5 -136.5t50 -188t-50 -188.5t-136.5 -136.5t-188 -50zM273 229q0 -15 11 -25.5t25.5 -10.5t25.5 10.5t11 25.5t-11 25.5t-25.5 10.5t-25.5 -10.5t-11 -25.5zM310 241q5 0 8.5 -3.5
t3.5 -8.5t-3.5 -8.5t-8.5 -3.5t-9 3.5t-4 8.5t4 8.5t9 3.5zM740 599h-112q-6 0 -11 -4q-8 -6 -12 -17l-27 -74h-275l-1 1l-1 -1q-7 5 -27 -1q-2 -1 -5.5 -2t-4.5 -1.5t-2 -1.5t-1 -3t1 -4l33 -118q2 -8 10 -11t15 -1l9 3q5 -4 11 -4h186l-21 -58v-1h-215q-7 0 -12 -5t-5 -12
v-3q0 -7 5 -11.5t12 -4.5h20h205h7q6 0 10 3q10 6 14 18l100 276v1h94q7 0 11.5 5t4.5 12v3q0 7 -4.5 11.5t-11.5 4.5zM539 396h-199q-3 0 -6 -1l-23 73h254z" />
    <glyph glyph-name="uniE606" unicode="&#xe606;" horiz-adv-x="1076" 
d="M1053 580l-61 60q-12 12 -31.5 10.5t-34.5 -16.5l-452 -453q-15 -15 -17 -34.5t11 -31.5l60 -60q12 -13 31.5 -11t34.5 17l452 452q15 15 17 34.5t-10 32.5zM573 -1l2 -2l-188 -99h381q21 0 36 15t15 36v291l-233 -232q-1 -1 -13 -9zM408 140q7 18 17 28l394 392v285
q0 21 -15 36t-36 15h-717q-21 0 -36 -15t-15 -36v-896q0 -21 15 -36t36 -15h253l102 245zM128 819h538q21 0 36 -9t15 -22t-15 -22.5t-36 -9.5h-538q-21 0 -36 9.5t-15 22.5t15 22t36 9zM128 651h538q21 0 36 -10t15 -23.5t-15 -23.5t-36 -10h-538q-21 0 -36 10t-15 23.5
t15 23.5t36 10zM128 410q-21 0 -36 10t-15 24t15 24t36 10h333q21 0 36 -10t15 -24t-15 -24t-36 -10h-333zM417 111l-96 -223l215 110z" />
    <glyph glyph-name="uniE607" unicode="&#xe607;" 
d="M512 789q-102 0 -189 -50.5t-137.5 -137.5t-50.5 -189.5t50.5 -189.5t137.5 -137.5t189 -50.5t189 50.5t137.5 137.5t50.5 189.5t-50.5 189.5t-137.5 137.5t-189 50.5zM512 45q-100 0 -184.5 49t-133.5 133.5t-49 184t49 184t133.5 133.5t184.5 49t184.5 -49
t133.5 -133.5t49 -184t-49 -184t-133.5 -133.5t-184.5 -49zM729 495l-198 132q-2 1 -3 2q-5 6 -14.5 5.5t-17.5 -6.5l-198 -135q-9 -7 -11.5 -16t2.5 -16t14.5 -7t17.5 7l16 11v-269q0 -8 6 -13.5t14 -5.5t13.5 5.5t5.5 13.5v271q0 11 -10 17l147 101l154 -103q-5 -5 -5 -12
v-58q0 -7 4.5 -11.5t11.5 -4.5h7q6 0 11 4.5t5 11.5v48l5 -4q8 -6 17.5 -6t14.5 6.5t2.5 15.5t-11.5 16zM493 403h52v51h-52v-51zM493 313h52v51h-52v-51zM493 223h52v51h-52v-51zM584 223h52v51h-52v-51zM675 223h52v51h-52v-51zM584 313h52v51h-52v-51z" />
    <glyph glyph-name="uniE608" unicode="&#xe608;" 
d="M512 803q-103 0 -190 -51t-138 -138t-51 -190t51 -190.5t138 -138t190 -50.5t190.5 50.5t138 138t50.5 190.5t-50.5 190t-138 138t-190.5 51zM512 56q-100 0 -184.5 49t-134 134t-49.5 185t49.5 185t134 134t184.5 49t185 -49t134.5 -134t49.5 -185t-49.5 -185
t-134.5 -134t-185 -49zM716 482q-7 24 -19 45q16 17 16 40.5t-17 40t-40 17t-40 -15.5q-22 12 -46 19q-1 23 -17.5 39.5t-40 16.5t-40.5 -16.5t-17 -39.5q-24 -7 -46 -19q-17 16 -40.5 15.5t-40 -17t-17 -40t16.5 -40.5q-13 -22 -19 -45q-24 -1 -40.5 -18t-16.5 -40.5
t16.5 -40t40.5 -17.5q7 -24 19 -45q-17 -17 -16.5 -40.5t17 -40t40 -17t40.5 15.5q21 -12 46 -19q0 -23 17 -39.5t40.5 -16.5t40 16.5t17.5 39.5q24 7 46 19q17 -16 40 -15.5t40 17t17 40t-16 40.5q12 22 19 45q23 1 39.5 17.5t16.5 40t-16.5 40.5t-39.5 18zM512 337
q-36 0 -61 25.5t-25 61.5t25 61.5t61 25.5t61.5 -25.5t25.5 -61.5t-25.5 -61.5t-61.5 -25.5z" />
    <glyph glyph-name="uniE609" unicode="&#xe609;" 
d="M890 666h-43v13q0 29 -20.5 49.5t-49.5 20.5h-1q-29 0 -49.5 -20.5t-20.5 -49.5v-13h-387v13q0 29 -20.5 49.5t-49.5 20.5h-1q-29 0 -49.5 -20.5t-20.5 -49.5v-13h-43q-29 0 -49.5 -20.5t-20.5 -49.5v-671q0 -29 20.5 -50t49.5 -21h755q29 0 49.5 21t20.5 50v671
q0 29 -20.5 49.5t-49.5 20.5zM734 679q0 18 12 30t30 12h1q17 0 29.5 -12t12.5 -30v-125q0 -17 -12.5 -29.5t-29.5 -12.5h-1q-18 0 -30 12.5t-12 29.5v125zM206 679q0 18 12.5 30t29.5 12h1q18 0 30 -12t12 -30v-125q0 -17 -12 -29.5t-30 -12.5h-1q-17 0 -29.5 12.5
t-12.5 29.5v125zM890 -89h-755q-6 0 -10 4t-4 10v493h783v-493q0 -6 -4 -10t-10 -4zM224 318h129v-64h-129v64zM449 318h128v-64h-128v64zM673 318h126v-64h-126v64zM224 189h129v-63h-129v63zM449 189h128v-63h-128v63zM673 189h126v-63h-126v63zM224 63h129v-66h-129v66z
M449 63h128v-66h-128v66zM673 63h126v-66h-126v66z" />
    <glyph glyph-name="uniE60A" unicode="&#xe60a;" horiz-adv-x="1025" 
d="M871 532v-170h73v118l25 -18q11 -7 25 -4t23 16t7.5 27.5t-12.5 21.5l-473 333q-6 6 -12 9q-11 6 -23.5 2.5t-20.5 -14.5l-469 -331q-11 -8 -12.5 -22t7.5 -27t23 -16.5t25 4.5l32 23v-544q0 -15 10.5 -26.5t25.5 -12.5q15 0 26.5 11t11.5 26v598l349 247zM548 494h-80
q-23 0 -30 -7t-7 -30v-81q0 -23 7 -30.5t30 -7.5h80q23 0 30 7.5t7 30.5v81q0 23 -7 30t-30 7zM548 95h-80q-23 0 -30 -7t-7 -30v-82q0 -23 7 -30t30 -7h80q23 0 30 7t7 30v82q0 23 -7 30t-30 7zM548 295h-80q-23 0 -30 -7t-7 -30v-82q0 -23 7 -30.5t30 -7.5h80q23 0 30 7.5
t7 30.5v82q0 23 -7 30t-30 7zM970 95h-81q-23 0 -30 -7t-7 -30v-82q0 -23 7 -30t30 -7h81q23 0 30 7t7 30v82q0 23 -7.5 30t-29.5 7zM759 95h-80q-23 0 -30 -7t-7 -30v-82q0 -23 7 -30t30 -7h80q23 0 30 7t7 30v82q0 23 -7 30t-30 7zM759 295h-80q-23 0 -30 -7t-7 -30v-82
q0 -23 7 -30.5t30 -7.5h80q23 0 30 7.5t7 30.5v82q0 23 -7 30t-30 7z" />
    <glyph glyph-name="uniE610" unicode="&#xe610;" 
d="M788 652q48 -35 86 -78.5t64.5 -94t40.5 -107t14 -114.5q0 -100 -38 -187.5t-103 -153t-153 -103.5t-188 -38q-99 0 -186.5 38t-153 103.5t-103 153t-37.5 187.5q0 57 13.5 112t38 104.5t61 92.5t81.5 77q24 17 51.5 13t44.5 -27t13 -50.5t-27 -45.5q-68 -49 -104 -121
t-36 -155q0 -71 27 -134t74 -110t109.5 -74t133.5 -27t134 27t110 74t74.5 110t27.5 134q0 84 -39 158.5t-109 123.5q-23 16 -28 44t11 51t44 28t52 -11v0zM511 255q-28 0 -47.5 19.5t-19.5 47.5v409q0 28 19.5 48.5t47.5 20.5q29 0 49 -20.5t20 -48.5v-409
q0 -28 -19.5 -47.5t-49.5 -19.5v0z" />
    <glyph glyph-name="uniE615" unicode="&#xe615;" 
d="M946 5l-62 61l-137 137l-52 7v1l-1 -1q-1 -1 -1 -2q-2 -1 -4 -3l-4 -4q-93 -90 -222 -90q-87 0 -160.5 43t-116.5 116.5t-43 160.5t43 160.5t116.5 116.5t160.5 43t161 -43t116.5 -116.5t42.5 -160.5q0 -50 -15 -97h1q-5 -9 -5 -18l1 -4q0 -17 11.5 -28.5t28.5 -11.5
q23 0 35 20l2 4q1 2 1 5q22 63 22 129q0 109 -53.5 201.5t-146 146t-201.5 53.5t-201.5 -53.5t-146 -146t-53.5 -201t53.5 -201t146 -146t201.5 -53.5q143 0 253 90l172 -172q12 -11 28.5 -11t28 11.5t11.5 28t-11 28.5zM946 5zM675 298h-34q-3 25 -22 42t-44.5 17t-44 -17
t-22.5 -42h-25q-11 0 -18 7.5t-7 17.5v226q0 10 7 17.5t18 7.5h192q10 0 17.5 -7.5t7.5 -17.5v-226q0 -10 -7.5 -17.5t-17.5 -7.5v0zM416 298h-17q-3 25 -22 42t-44.5 17t-44.5 -17t-22 -42h-17q-7 0 -12 5t-5 12v92q0 25 32 71t52 46h100q7 0 12 -5t5 -12v-192q0 -7 -5 -12
t-12 -5v0zM383 482q-27 1 -58 0q-11 -1 -31 -29t-20 -46v-9h109v84v0zM333 332q17 0 29 -12.5t12 -30t-12 -29.5t-29.5 -12t-29.5 12t-12 29.5t12 30t30 12.5v0zM577 332q18 0 31 -13t13 -31t-13 -31t-31 -13t-31 13t-13 31t13 31t31 13v0zM577 332z" />
    <glyph glyph-name="uniE616" unicode="&#xe616;" 
d="M222 69h652q7 0 7 -7v-25q0 -8 -7 -8h-652q-7 0 -7 8v25q0 7 7 7zM346 731h-124q-8 0 -8 -8v-622q0 -8 8 -8h124q8 0 8 8v622q0 8 -8 8zM321 537q0 -8 -7 -8h-61q-7 0 -7 8v97q0 8 7 8h61q7 0 7 -8v-97zM540 731h-124q-8 0 -8 -8v-622q0 -8 8 -8h124q8 0 8 8v622
q0 8 -8 8zM516 537q0 -8 -8 -8h-60q-8 0 -8 8v97q0 8 8 8h60q8 0 8 -8v-97zM875 140l-172 599q-1 7 -8 5l-121 -35q-7 -1 -5 -8l172 -600q1 -7 8 -5l121 35q7 2 5 9zM719 541l-59 -17q-7 -2 -9 5l-27 95q-2 7 5 9l59 17q7 1 9 -5l27 -95q2 -7 -5 -9z" />
    <glyph glyph-name="uniE61E" unicode="&#xe61e;" 
d="M864 720h-544q-5 0 -12.5 -0.5t-26.5 -6.5t-34 -16.5t-27 -34t-12 -54.5v-640h-160q-1 -6 -1 -15.5t3 -34.5t11.5 -44t30 -34.5t52.5 -15.5h672q3 0 12 1t27.5 7.5t33.5 18.5t27 38.5t12 62.5v624h64q-2 1 0.5 15t-4 36t-17 42.5t-39 35.5t-68.5 15zM144 -128
q-21 0 -33 12t-13 24l-2 12h96q0 -2 -0.5 -5t-3 -11.5t-7 -15t-14.5 -11.5t-23 -5zM880 -46q0 -23 -6.5 -40t-15.5 -24.5t-19.5 -12t-15.5 -5t-7 -0.5h-592q32 32 32 96v640q0 3 0.5 7t4 15t9.5 19.5t19 15.5t31 7q28 0 44 -16t18 -32l2 -16v-32h496v-622zM432 624
q0 32 -24 48h472q2 0 5 -0.5t11.5 -3t15 -7t11.5 -14.5t5 -23h-496zM544 240h272v-48h-272v48zM544 416h272v-48h-272v48zM384 32l-48 48l-32 -32l80 -80l112 112l-32 32zM544 48h272v-48h-272v48zM384 224l-48 48l-32 -32l80 -80l112 112l-32 32zM304 416l80 -80l112 112
l-32 32l-80 -80l-48 48z" />
    <glyph glyph-name="uniE61F" unicode="&#xe61f;" 
d="M811 694q0 7 -11 18q-3 3 -11 13t-14 16q-25 25 -43 39.5t-40 36.5q-21 14 -29 21q-10 6 -21 11q-4 0 -9.5 2t-8.5 2h-4v-123q0 -11 4 -18q0 -7 7 -22q2 -3 5.5 -8.5t5.5 -9.5q7 -7 18 -7h148v15q3 3 3 14zM620.5 615q-21.5 11 -32.5 32q-13 20 -18 40q-8 29 -8 40v122
h-378q-22 0 -43 -11q-19 -9 -36 -32q-15 -11 -29 -40q-11 -21 -11 -43v-678q0 -28 14 -47q13 -24 33 -39q3 -3 9.5 -8.5t10.5 -8t10.5 -6.5t12.5 -6q22 -11 40 -11h353q-27 41 -36 76q-14 50 -14 83v14v14h-246q-25 0 -43 18t-18 43.5t18 43.5t43 18h289q35 55 101 94
q66 36 137 36h18q11 0 18 -4v249h-144q-29 0 -50.5 11zM689 416q0 -25 -18 -43t-44 -18h-375q-25 0 -43 18t-18 43.5t18 43.5t43 18h372q25 0 43 -18q22 -17 22 -44zM811 287q-37 0 -70 -19t-52 -50q-52 -3 -87.5 -40.5t-35.5 -89.5q0 -51 33 -87.5t82 -41.5v-47
q0 -15 11 -15h7q8 0 15 7l83 98l3 3v-50q0 -14 11 -14h7q8 0 15 7l94 108q39 40 39 97q-8 53 -52.5 93.5t-102.5 40.5zM707 2q-35 0 -61 25.5t-26 60.5q0 30 19 54t46 29q-4 -11 -4 -32q0 -40 22 -71t58 -48q-30 -18 -54 -18zM815 45q-41 0 -69 28.5t-28 69t28 69t68.5 28.5
t69 -28.5t28.5 -69.5q0 -38 -28.5 -67.5t-68.5 -29.5zM768 160h50q6 0 10.5 4.5t4.5 10t-4.5 10t-10.5 4.5h-50q-5 0 -9.5 -4.5t-4.5 -9.5q-3 -6 1.5 -10.5t12.5 -4.5zM768 106h50q6 0 10.5 4.5t4.5 10t-4.5 10t-10.5 4.5h-50q-5 0 -9.5 -4.5t-4.5 -9.5q-3 -6 1.5 -10.5
t12.5 -4.5z" />
    <glyph glyph-name="uniE620" unicode="&#xe620;" 
d="M213 370v0h2h-2zM936 206l-178 178l160 160q40 41 20 98q-9 21 -33.5 48t-63.5 63t-46 43q-25 26 -62 26t-63 -24l-162 -162l-178 178q-9 9 -22.5 9t-22.5 -9l-201 -201q-9 -9 -9 -22t9 -23l178 -178l-178 -178q-8 -8 -8 -23v-206q0 -14 9 -23.5t21 -9.5h207q13 0 23 10
l178 178l178 -178q9 -9 22.5 -9t22.5 9l201 201q8 9 7.5 22.5t-9.5 22.5zM715 751q8 7 18.5 6t18.5 -8q82 -82 125 -123q7 -8 7 -20t-7 -19l-58 -58l-37 39h-2l-88 88v0l-37 37zM741 556q-53 -54 -152 -153.5t-180.5 -180.5t-154.5 -153l-61 61l487 487q7 -6 19.5 -19
t22.5 -23.5t19 -18.5zM152 589l155 155l31 -30l-55 -56q-7 -6 -7 -14t7 -12q6 -6 14 -6t12 6l56 55l45 -45l-29 -29q-6 -6 -6 -14t6 -12q6 -6 14 -6t13 6l28 28l27 -26l-156 -156zM629 667l24 -23l-487 -487l-23 22zM139 13v117l117 -117h-117zM305 17l-22 23l487 487
l23 -22zM713 28l-156 155l156 156l30 -29l-28 -28q-6 -7 -6 -14.5t6 -12.5q6 -6 14 -6t12 6l29 27l45 -45l-55 -56q-14 -13 0 -26q6 -5 14 -5t12 5l56 55l26 -29z" />
    <glyph glyph-name="uniE62B" unicode="&#xe62b;" horiz-adv-x="1536" 
d="M1536 -23q-6 2 -15 4t-35 10.5t-50 18t-53.5 24.5t-50.5 31.5t-35 38.5t-14 45q0 30 16 59t38.5 57.5t45 62t38.5 85t16 112.5q0 44 -7.5 84t-25.5 77.5t-46.5 65t-72.5 44t-101 16.5q-56 0 -100.5 -17t-72.5 -45t-46 -66t-25.5 -77t-7.5 -82q0 -61 15.5 -112.5t38.5 -85
t45.5 -62t38.5 -57.5t16 -59q0 -18 -8.5 -35.5t-23 -32t-33.5 -27.5t-40 -23t-42 -19t-40 -15.5t-33.5 -10.5t-23.5 -6l-9 -3v-182h703v182zM588 629h-520q-28 0 -48 20t-20 48.5t20 49t48 20.5h520q29 0 48.5 -20.5t19.5 -49t-19.5 -48.5t-48.5 -20zM588 229h-520
q-28 0 -48 20t-20 49t20 49t48 20h520q28 0 48 -20t20 -49t-20 -49t-48 -20zM588 -171h-520q-28 0 -48 20.5t-20 49t20 48.5t48 20h520q28 0 48 -20t20 -48.5t-20 -49t-48 -20.5z" />
    <glyph glyph-name="uniE62C" unicode="&#xe62c;" 
d="M708 309q-11 0 -18.5 -8t-7.5 -19t7.5 -18.5t18.5 -7.5t19 7.5t8 18.5t-8 19t-19 8zM615 53q0 -9 5.5 -14t14.5 -5t14 6t5 15l7 91q0 7 3 12l31 52l25 -14q5 -4 14 -3l42 9q9 1 12 7t-1.5 11t-14.5 4l-38 -3q-4 3 -16.5 13.5t-15.5 13.5q-16 14 -29 13q-14 -2 -21 -14
l-32 -63q-4 -9 -5 -21v-110zM758 256h42v-20h12v20h42v-96h-96v31l20 4q12 3 16.5 12t-2 17t-20.5 7l-14 -1v26zM441 74h-259v134h259v-134zM182 57h259v-23h17v362h-17v-20h-259v20h-17v-362h17v23zM182 359h259v-134h-259v134zM195 196h49v-23h14v23h48v-111h-111v111z
M743 145h49v-23h14v23h48v-111h-111v111zM317 347h49v-23h14v23h48v-111h-111v111zM18 19h988v-32h-988v32zM5 447l507 290l507 -290v44l-507 290l-507 -290v-44zM960 34h-78v384h-740v-384h-78v423l448 256l448 -256v-423z" />
    <glyph glyph-name="uniE63B" unicode="&#xe63b;" 
d="M799 770h-576q-39 0 -67.5 -28t-28.5 -68v-576q0 -39 28.5 -67.5t67.5 -28.5h576q40 0 68 28.5t28 67.5v576q0 40 -28 68t-68 28zM847 98q0 -20 -14 -34t-34 -14h-576q-19 0 -33.5 14t-14.5 34v576q0 20 14.5 34t33.5 14h576q20 0 34 -14t14 -34v-576z" />
    <glyph glyph-name="uniE643" unicode="&#xe643;" 
d="M872 -128h-720q-60 0 -102.5 42.5t-42.5 102.5v734q0 60 42.5 102.5t102.5 42.5h720q60 0 102.5 -42.5t42.5 -102.5v-734q0 -60 -42.5 -102.5t-102.5 -42.5zM152 855q-43 0 -73.5 -30.5t-30.5 -73.5v-734q0 -43 30.5 -73.5t73.5 -30.5h720q43 0 73.5 30.5t30.5 73.5v734
q0 43 -30.5 73.5t-73.5 30.5h-720zM432 139q-17 0 -29 12l-248 248q-12 12 -12 29t12 29t29 12t29 -12l248 -248q12 -12 12 -29t-12 -29t-29 -12zM432 139q-17 0 -29 12t-12 29t12 29l408 408q12 12 29 12t29 -12t12 -29t-12 -29l-408 -408q-12 -12 -29 -12z" />
    <glyph glyph-name="uniE65D" unicode="&#xe65d;" 
d="M644 -105q-25 0 -41 18q-16 17 -42.5 35t-48.5 18q-23 0 -49.5 -18t-41.5 -34q-16 -18 -41 -18q-11 0 -21 5h-1l-107 60l-1 1q-14 10 -19 27.5t2 33.5q10 23 10 43q0 47 -33 80t-80 33h-4q-14 0 -24 11t-13 30q-10 48 -10 85t10 85q3 19 13.5 30t23.5 10h4q47 0 80 33.5
t33 79.5q0 21 -10 44q-7 16 -2 33.5t19 27.5l2 1l112 62h1q10 4 21 4q25 0 41 -16q15 -17 41 -34t48 -17t47.5 17t41.5 33t40 16q12 0 21 -4l2 -1l108 -60l1 -1q15 -10 20 -27.5t-2 -33.5q-10 -23 -10 -44q0 -46 33 -79.5t80 -33.5h3q14 1 24.5 -10t13.5 -30q9 -48 9 -85
t-9 -85q-3 -19 -13.5 -30t-24.5 -11h-3q-47 0 -80 -33t-33 -80q0 -20 10 -43q7 -16 2 -33.5t-20 -27.5l-1 -1l-110 -61l-1 -1q-10 -4 -21 -4zM641 -53q1 -1 3 -1l103 57q-13 33 -13 63q0 66 45 113.5t110 50.5q8 45 8 75t-8 75q-65 3 -110 50.5t-45 112.5q0 31 13 64
l-101 56h-1q-2 0 -3 -1q-16 -16 -38 -32q-47 -33 -88 -33t-89 34q-22 16 -37 32q-2 1 -4 1h-1l-105 -57q14 -33 14 -64q0 -65 -45 -112.5t-110 -50.5q-8 -45 -8 -75t8 -75q65 -3 110 -50.5t45 -113.5q0 -30 -14 -63l100 -55h3q16 18 38 34q49 35 91 35t90 -36q23 -16 39 -34
zM512 155q-62 0 -106 44t-44 106.5t44 106.5t106 44t106 -44t44 -106.5t-44 -106.5t-106 -44zM512 405q-41 0 -70 -29t-29 -70.5t29 -70.5t70 -29t70 29t29 70.5t-29 70.5t-70 29z" />
    <glyph glyph-name="uniE666" unicode="&#xe666;" 
d="M816 69q0 -32 -18 -50t-49 -18h-571q-32 0 -48 13t-18 42l-5 639q2 33 20.5 51.5t50.5 18.5h429v-169q0 -19 13 -31.5t31 -12.5h163v-111h46v111v18v11v6v2h-1q-2 9 -9 15l-205 189l-6 6l-7 6q-7 6 -15 7h-1h-5h-444q-42 0 -71.5 -29.5t-29.5 -71.5v-655
q0 -41 29.5 -70.5t71.5 -29.5h592q42 0 71.5 29.5t29.5 70.5v21l-43 -1zM645 742l165 -153h-165v153zM934 284h-76v76q0 10 -7 17.5t-17.5 7.5t-18 -7.5t-7.5 -17.5v-76h-76q-10 0 -17.5 -7.5t-7.5 -18t7.5 -18t17.5 -7.5h76v-75q0 -11 7.5 -18t18 -7t17.5 7t7 18v75h76
q11 0 18 7.5t7 18t-7 18t-18 7.5z" />
    <glyph glyph-name="uniE670" unicode="&#xe670;" 
d="M852 639l-34 15h-1l-1 1h-1l-1 1h-1l-2 1l-1 1h-1l-1 1h-1q-14 6 -23 11q-17 6 -65 28t-70 31l-126 54q-17 8 -18.5 8.5t-15.5 -4.5l-114 -53q-4 -1 -11 -4l-11 -6l-179 -83l-6 -3q-7 -2 -10.5 -4.5t-3.5 -4.5v-528h66v468h584v-468h66v526q1 2 -0.5 3.5t-3.5 3t-4.5 2
t-5.5 1.5t-4 2zM540 327q26 2 35 22q3 7 3 50q0 2 0.5 13.5t0 16.5t-2 14.5t-5.5 14t-11.5 8.5t-17.5 4q-21 2 -56.5 1.5t-55.5 0.5q-3 10 -0.5 28.5t-1 33t-16.5 8.5q-5 -2 -41.5 -36.5t-54.5 -52.5q-2 -2 -10 -9t-11.5 -10.5t-8.5 -9.5t-7.5 -11.5t-2.5 -11.5
q0 -16 16 -30l47 -45q4 -4 12 -11.5t12 -11.5q41 -41 48 -44q11 -5 14.5 2.5t3.5 21.5v46q91 -3 111 -2zM395 360v-43q-6 4 -22 19.5t-21 22.5l-22 22q-5 5 -12 11q-9 8 -8.5 11t12.5 14q5 4 8 7q57 57 66 61v-43h75q70 0 73 -2q1 -3 1 -27.5t-1 -33.5q0 -16 -2 -17
q-4 -2 -35 -2.5t-68 0t-44 0.5zM732 269l-45 41l-10 10l-11 11l-33 30l-11 10q-7 7 -14.5 5.5t-7.5 -12.5q0 -56 -2 -59h-64q-24 3 -48 0q-21 -1 -31 -17q-6 -9 -6 -39v-47q0 -20 14 -32q10 -8 40 -8q64 0 95 1v-41q0 -30 12 -30q3 0 8 3t11 8.5t10.5 9.5t10.5 10t6 7l44 42
l21 22q3 2 7 6l8 8q2 2 5.5 6t5 7t3 7.5t1 9t-1.5 9.5q-2 7 -17 22zM512 896q-104 0 -199 -40.5t-163.5 -109t-109 -163.5t-40.5 -199t40.5 -199t109 -163.5t163.5 -109t199 -40.5t199 40.5t163.5 109t109 163.5t40.5 199t-40.5 199t-109 163.5t-163.5 109t-199 40.5z
M512 -94q-97 0 -185.5 38t-152.5 102t-102 152.5t-38 185.5t38 185.5t102 152.5t152.5 102t185.5 38t185.5 -38t152.5 -102t102 -152.5t38 -185.5t-38 -185.5t-102 -152.5t-152.5 -102t-185.5 -38z" />
    <glyph glyph-name="uniE673" unicode="&#xe673;" 
d="M871 630l-214 121q-18 10 -38.5 5t-31.5 -22l-346 -506q-10 -57 7 -285q4 -1 8.5 -5t8.5 -6t9 -3q42 16 143.5 66.5t122.5 63.5l346 507q11 17 6.5 35.5t-21.5 28.5v0zM315 -10l-21 12l-4 86l103 -58l-78 -40v0zM497 83l-52 -26l-158 89l-3 58l276 405l43 -24l-263 -385
l43 -24l263 385l42 -24l-207 -304l43 -24l207 304l43 -24l-277 -406v0zM802 529l-214 121l41 60l214 -120l-41 -61v0zM802 529zM722 349v-468h-546v732h334l28 39h-408v-809h638v570z" />
    <glyph glyph-name="uniE674" unicode="&#xe674;" 
d="M865 -71h-738q-33 0 -57 23.5t-24 57.5v738q0 33 24 57t57 24h486q11 0 18.5 -7.5t7.5 -18t-7.5 -18t-18.5 -7.5h-486q-12 0 -21 -9t-9 -21v-738q0 -12 9 -21t21 -9h738q13 0 21.5 9t8.5 21v421q0 11 7.5 18.5t18.5 7.5t18.5 -7.5t7.5 -18.5v-421q0 -34 -24 -57.5
t-58 -23.5zM298 101q-11 0 -18 7q-11 11 -7 25q52 192 78 218l432 433q25 24 58 24q31 0 52 -21l66 -66q22 -22 21 -54t-24 -55l-433 -433q-26 -26 -218 -78h-7zM387 315q-14 -19 -52 -152q133 38 152 53l432 432q9 8 9.5 19t-6.5 18l-65 66q-6 6 -16 6q-12 0 -21 -9z
M877 544q-11 0 -18 7l-136 136q-8 8 -8 18.5t7.5 18t18.5 7.5t18 -8l136 -136q8 -7 8 -17.5t-7.5 -18t-18.5 -7.5zM502.5 169q-10.5 0 -17.5 8l-136 136q-8 7 -8 18t7.5 18.5t18 7.5t18.5 -8l136 -136q7 -7 7 -18t-7.5 -18.5t-18 -7.5z" />
    <glyph glyph-name="uniE676" unicode="&#xe676;" 
d="M617 67h-58v64v94v57h58h63v61v59h55h87v100q0 19 -16 19h-407l-26 52q-4 8 -13.5 14t-18.5 6h-140q-9 0 -18.5 -6t-13.5 -14l-26 -52h-34q-10 0 -18.5 -5t-8.5 -14v-466q0 -10 9 -19.5t18 -9.5h571v60h-63zM835 342h-96v-120h-119v-95h119v-120h96v120h107v95h-107v120z
" />
    <glyph glyph-name="uniE688" unicode="&#xe688;" 
d="M959 92q-5 16 -18 27.5t-24 16.5t-34 13.5t-31 11.5q-15 6 -64.5 27.5t-75.5 31.5q-14 4 -38 11q-14 9 -39 62q-16 3 -24 4q0 15 11 28t13 20.5t3.5 28.5t6.5 30q3 6 13.5 11.5t14.5 10.5q8 11 13 36q8 45 -3 68q-2 3 -5 8t-4 8.5t-2 9.5q-1 10 2.5 47t3.5 38q1 54 -8 89
q-9 27 -24 36l-28 4l-18 17q-25 15 -52.5 20.5t-55 0t-43 -10.5t-38.5 -14q-46 -15 -67.5 -75.5t-2.5 -149.5q2 -12 -4.5 -25t-6.5 -17q0 -1 1.5 -17.5t2.5 -25t3.5 -22t7.5 -22.5t12 -13q1 0 5.5 -1.5t9 -2.5t4.5 0q4 -44 7 -73q2 -7 12 -17.5t12 -23.5l-18 -5
q-26 -53 -39 -62q-28 -8 -38 -11q-26 -10 -75.5 -31.5t-64.5 -27.5q-8 -3 -31 -11.5t-34 -13.5t-24 -16.5t-18 -27.5v-133h446l-88 69l67 156h44l67 -156l-88 -69h446v133zM534 202h-44l-23 69h90z" />
    <glyph glyph-name="uniE692" unicode="&#xe692;" 
d="M500 207h24q14 0 24.5 -10.5t10.5 -24.5v-163q0 -14 -10.5 -24.5t-24.5 -10.5h-24q-14 0 -24.5 10.5t-10.5 24.5v163q0 14 10.5 24.5t24.5 10.5zM884 323v-419q0 -19 -13.5 -32.5t-32.5 -13.5h-652q-19 0 -32.5 13.5t-13.5 32.5v419h744zM954 393h-884v-489q0 -48 34 -82
t82 -34h652q48 0 82 34t34 82v489zM861 393h-70v70q0 116 -83 197.5t-196 81.5q-114 0 -196.5 -82.5t-82.5 -196.5v-70h-70v70q0 93 47 174t127.5 128t174.5 47q93 0 173 -45.5t128 -126.5t48 -177v-70z" />
    <glyph glyph-name="uniE694" unicode="&#xe694;" 
d="M812 -28l91 -90q6 -6 6 -15t-6 -15t-14.5 -6t-14.5 6l-91 91q-26 -22 -59 -36q-43 -17 -87 -17t-87 17q-43 18 -74 50q-32 31 -50 74v1q-17 43 -17 86q0 44 17 87q18 42 50 74q66 67 161 67q46 0 87 -17q42 -18 74 -50h1q32 -32 49 -74v-1q17 -40 17 -86q0 -44 -17 -87
q-12 -30 -36 -59zM208 754q-38 0 -66 -28q-27 -27 -27 -65v-721q0 -40 27 -66h1q26 -28 65 -28h214q14 0 24.5 10.5t10.5 24.5t-10.5 24.5t-24.5 10.5h-214q-10 0 -17 7h1q-7 6 -7 17v721q0 10 7 16q6 7 16 7h393v-159q0 -31 22 -55l1 -1q23 -24 56 -24h159v-111
q0 -15 10.5 -25t24.5 -10q15 0 25 10t10 25v131v1q0 15 -10 25l-253 253q-10 10 -24 10h-414zM804 488h-124q-16 0 -26 11h-2q-9 11 -9 26v123zM709 291q-35 13 -72 13q-56 0 -103.5 -31.5t-68.5 -82.5q-14 -34 -14 -72q0 -37 13 -70l1 -1q13 -34 40 -60q27 -27 61 -41
q33 -14 71 -14q37 0 72 14q31 13 60 40v1q25 25 40 60q14 34 14 71q0 38 -13 70l-1 2q-14 34 -39 59l-1 1q-26 26 -60 41z" />
    <glyph glyph-name="uniE69A" unicode="&#xe69a;" 
d="M446 573zM254 573.5q0 79.5 56 136t136 56.5t136 -56.5t56 -136t-56 -136t-136 -56.5t-136 56.5t-56 136zM435 133q0 53 23 99.5t63 78.5q-37 8 -75 8q-132 0 -225.5 -93.5t-94.5 -225.5h352q-43 59 -43 133zM591 319q-7 0 -12 -5.5t-5 -12.5v-29q0 -7 5 -12t12 -5h287
q7 0 12 5t5 12v29q0 7 -5 12.5t-12 5.5h-287zM728 144q0 -7 5 -12t12 -5h132q8 0 13 5t5 12v29q0 8 -5 13t-13 5h-132q-7 0 -12 -5t-5 -13v-29zM642 173q0 8 -5 13t-12 5h-34q-7 0 -12 -5t-5 -13v-29q0 -7 5 -12t12 -5h34q7 0 12 5t5 12v29zM574 16q0 -7 5 -12t12 -5h288
q7 0 12 5t5 12v29q0 8 -5 13t-12 5h-288q-7 0 -12 -5t-5 -13v-29z" />
    <glyph glyph-name="uniE6A8" unicode="&#xe6a8;" 
d="M371 547l343 96l62 -221l-345 -93zM433 288l519 147l64 -214l-516 -142zM574 29l424 116l18 -58l-426 -115zM8 769h124v-17h125l158 -621l-58 -20l-152 592l-69 1l-1 -17l-127 3v79zM433 90v-76q2 0 5 -1t11 -4.5t14 -9.5t11 -18t5 -28h78q0 104 -107 133q-8 2 -17 4z
M479 -47q-1 0 0 -6t-1.5 -15.5t-6.5 -19t-14 -16t-24 -6.5v-69q5 0 13 1t28 8.5t36 20t30 39.5t17 63h-78zM433 -110q-2 0 -6.5 0.5t-15.5 3.5t-19 8.5t-14.5 19t-5.5 31.5h-64v-7q0 -5 1 -18.5t4.5 -26t12.5 -27.5t21.5 -26t35 -19t50.5 -8v69zM371 -47q0 3 0.5 6.5
t3.5 13.5t8.5 18t18.5 15t31 8v76q-5 0 -13.5 -1.5t-30.5 -9.5t-39 -21t-30 -40.5t-12 -64.5h63z" />
    <glyph glyph-name="uniE6BA" unicode="&#xe6ba;" 
d="M511 669h371q27 0 42 -2q99 -13 99 -112q1 -260 0 -501q0 -55 -33.5 -88.5t-87.5 -34.5q-412 -1 -782 1q-54 0 -86.5 32t-32.5 86q-1 251 0 499q1 119 122 120h388v0zM399 101q0 88 -1 94q-1 28 -21 50t-47 24q-72 6 -146 1q-25 -2 -43 -18t-22 -41q-3 -16 -4 -33.5
t-1.5 -41.5t-0.5 -35h286v0zM344 417q0 36 -25 60.5t-62 24.5q-36 0 -61.5 -25t-25.5 -62q0 -36 25.5 -61.5t61.5 -24.5q37 0 62 25.5t25 62.5v0zM682 213h135q38 0 39 30q2 34 -37 34q-140 1 -272 0q-39 0 -37 -35q1 -29 39 -29h133v0zM682 96h135q39 0 39 30q1 14 -9 23.5
t-28 9.5q-122 1 -274 -1q-18 0 -25 -10q-13 -20 -7 -31q5 -7 14.5 -13.5t17.5 -6.5q19 -1 137 -1v0zM731 328q80 0 86 1q18 0 28.5 8t10.5 22q-1 29 -37 30q-90 1 -178 0q-17 0 -27.5 -9.5t-8.5 -22.5q4 -29 38 -29h88v0zM731 328z" />
    <glyph glyph-name="uniE6BD" unicode="&#xe6bd;" 
d="M955 374h-44q-15 0 -29.5 10.5t-18.5 24.5l-26 62q-7 13 -4.5 30.5t13.5 28.5l32 31q10 11 10 26.5t-10 25.5l-53 52q-11 11 -26 11t-26 -11l-31 -31q-11 -11 -28.5 -13.5t-30.5 4.5l-62 26q-14 4 -24.5 18.5t-10.5 29.5v44q0 15 -11 26t-26 11h-74q-15 0 -26 -11
t-11 -26v-44q0 -16 -10.5 -30t-24.5 -18l-62 -26q-13 -7 -30.5 -4.5t-28.5 13.5l-31 32q-11 10 -26 10t-26 -10l-52 -53q-11 -10 -11 -25.5t11 -26.5l31 -31q11 -11 13.5 -28.5t-4.5 -30.5l-26 -62q-4 -14 -18.5 -24.5t-29.5 -10.5h-44q-15 0 -26 -11t-11 -26v-74
q0 -15 11 -26t26 -11h44q16 0 30 -10.5t18 -24.5l26 -62q7 -13 4.5 -30.5t-13.5 -28.5l-32 -31q-10 -11 -10 -26.5t10 -25.5l53 -53q11 -10 26 -10t26 10l31 32q11 11 28.5 13.5t30.5 -5.5l62 -25q14 -4 24.5 -18.5t10.5 -29.5v-44q0 -15 11 -26t26 -11h74q15 0 26 11t11 26
v44q0 15 10.5 29.5t24.5 18.5l62 25q13 8 30.5 5.5t28.5 -13.5l31 -32q11 -10 26 -10t26 10l53 53q10 11 10 26t-10 26l-32 31q-11 11 -13.5 28.5t4.5 30.5l26 62q4 14 18 24.5t30 10.5h44q15 0 26 11t11 26v74q0 15 -11 26t-26 11zM697 300q0 -76 -54 -130.5t-130.5 -54.5
t-131 54.5t-54.5 131t54.5 130.5t131 54t130.5 -54t54 -131z" />
    <glyph glyph-name="uniE6D8" unicode="&#xe6d8;" 
d="M959 301l-213 160v-106h-213v-107h213v-106zM492 301l-213 160v-106h-213v-107h213v-106zM849 19q0 -23 -16.5 -39.5t-39.5 -16.5h-561q-23 0 -39.5 16.5t-16.5 39.5v57h-112v-57q0 -69 49.5 -118.5t118.5 -49.5h561q69 0 118.5 49.5t49.5 118.5v57h-112v-57zM793 748
h-561q-69 0 -118.5 -49t-49.5 -119v-50h112v50q0 23 16.5 39.5t39.5 16.5h561q23 0 39.5 -16.5t16.5 -39.5v-50h112v50q0 70 -49.5 119t-118.5 49z" />
    <glyph glyph-name="uniE6DB" unicode="&#xe6db;" 
d="M150 -147q-1 11 -1 22q0 89 48.5 165t132.5 120t182 44t182 -44t132.5 -120t48.5 -165q0 -11 -1 -22h62v22q0 80 -33 153q-33 70 -92 124q-94 87 -224 108q76 24 125 90t49 148q0 104 -73 177.5t-176 73.5t-176 -73.5t-73 -177.5q0 -82 49 -148t125 -90
q-130 -21 -224 -108q-59 -54 -92 -124q-33 -73 -33 -153v-22h62zM327 498.5q0 77.5 54 132t131 54.5t131 -54.5t54 -132t-54 -132t-131 -54.5t-131 54.5t-54 132z" />
    <glyph glyph-name="uniE6E5" unicode="&#xe6e5;" 
d="M911 -128q19 0 32 18t13 43v902q0 25 -13 43t-32 18h-798q-19 0 -32 -18t-13 -43v-902q0 -25 13 -43t32 -18h798zM205 759h341v-68h-341v68zM205 555h614v-69h-614v69zM205 350h614v-68h-614v68zM205 145h614v-68h-614v68z" />
    <glyph glyph-name="uniE6EC" unicode="&#xe6ec;" 
d="M741 647h-463v55q0 5 3.5 8.5t8.5 3.5h439q5 0 8.5 -3.5t3.5 -8.5v-55zM741 86h-463v528h463v-528zM741 -100q0 -5 -3.5 -8.5t-8.5 -3.5h-439q-5 0 -8.5 3.5t-3.5 8.5v153h463v-153zM729 747h-439q-19 0 -32 -13.5t-13 -31.5v-802q0 -19 13 -32t32 -13h439q19 0 32 13
t13 32v802q0 18 -13 31.5t-32 13.5zM460 -13h99v-33h-99v33z" />
    <glyph glyph-name="uF0126" unicode="&#xf0126;" 
d="M949 458l-58 48q-21 18 -34 3l-324 -343l-75 -87l97 -85l35 41l37 42l3 3l2 3l319 343q16 18 -2 32zM421 40q-67 -120 -80 -165q-5 -17 0 -20.5t22 2.5q22 8 60.5 33t66.5 46l27 21zM713 426l46 53v220q0 45 -44 45h-602q-46 0 -46 -43v-780q0 -42 46 -42h193l89 204z
M186 659h454q14 0 23 -9.5t9 -22.5t-9 -22.5t-23 -9.5h-454q-13 0 -22.5 9.5t-9.5 22.5t9.5 22.5t22.5 9.5zM186 511h454q14 0 23 -9t9 -22.5t-9 -22.5t-23 -9h-454q-13 0 -22.5 9t-9.5 22.5t9.5 22.5t22.5 9zM186 300q-13 0 -22.5 9.5t-9.5 22.5t9.5 22t22.5 9h281
q14 0 23.5 -9t9.5 -22t-9.5 -22.5t-23.5 -9.5h-281zM501 -121h106l40 -2l68 2q22 0 33 13.5t11 35.5v134v99l-198 -224q-52 -54 -60 -58zM501 -121z" />
  </font>
</defs>
</svg>
